<svg xmlns="http://www.w3.org/2000/svg" viewBox="0 0 128 128"><path d="M0,1.5C0,.6.7,0,1.6,0h11.2c.9,0,1.5.6,1.5,1.5v125c0,.9-.6,1.5-1.5,1.5H1.6c-.9,0-1.5-.6-1.5-1.5V1.5ZM28.5,1.5c0-.9.6-1.5,1.5-1.5h11.2c.9,0,1.5.6,1.5,1.5v125c0,.9-.6,1.5-1.5,1.5h-11.2c-.9,0-1.5-.6-1.5-1.5V1.5ZM56.9,1.5c0-.9.6-1.5,1.5-1.5h11.2c.9,0,1.5.6,1.5,1.5v125c0,.9-.6,1.5-1.5,1.5h-11.2c-.9,0-1.5-.6-1.5-1.5V1.5ZM85.4,1.5c0-.9.6-1.5,1.5-1.5h11.2c.9,0,1.5.6,1.5,1.5v125c0,.9-.6,1.5-1.5,1.5h-11.2c-.9,0-1.5-.6-1.5-1.5V1.5ZM113.8,51.3c0-.9.6-1.5,1.5-1.5h11.2c.9,0,1.5.6,1.5,1.5v25.5c0,.9-.6,1.5-1.5,1.5h-11.2c-.9,0-1.5-.6-1.5-1.5v-25.5Z"/></svg>